<?xml version="1.0" standalone="no"?>
<!DOCTYPE svg PUBLIC "-//W3C//DTD SVG 20010904//EN"
 "http://www.w3.org/TR/2001/REC-SVG-20010904/DTD/svg10.dtd">
<svg version="1.0" xmlns="http://www.w3.org/2000/svg"
 width="750.000000pt" height="450.000000pt" viewBox="0 0 750.000000 450.000000"
 preserveAspectRatio="xMidYMid meet">

<g transform="translate(0.000000,450.000000) scale(0.100000,-0.100000)"
fill="#000000" stroke="none">
<path d="M3975 4129 c-126 -102 -218 -214 -336 -411 l-79 -132 24 -40 c13 -23
146 -259 296 -526 150 -267 279 -495 287 -508 14 -23 16 -22 65 65 83 145 186
282 296 390 l103 103 -293 550 c-161 302 -297 549 -303 549 -5 0 -32 -18 -60
-40z"  fill="#696CFF"/>
<path d="M2898 3420 l-106 -5 297 -527 c163 -290 300 -530 302 -533 6 -5 624
70 669 82 59 14 -360 77 -475 71 l-57 -3 -254 460 c-140 253 -258 460 -262
460 -4 1 -55 -2 -114 -5z"  fill="#696CFF"/>
<path d="M4717 2923 c-71 -99 -195 -308 -382 -643 -81 -146 -149 -267 -151
-269 -2 -2 -76 11 -166 28 -215 42 -363 61 -473 61 l-90 0 120 -41 c342 -117
623 -305 775 -521 26 -37 50 -64 54 -61 3 3 6 41 6 82 0 291 139 851 332 1335
21 54 37 100 35 102 -2 2 -29 -31 -60 -73z"  fill="#696CFF"/>
<path d="M4076 2340 c-41 -13 -85 -58 -97 -101 -39 -130 135 -214 236 -114 43
44 54 92 30 144 -26 59 -103 91 -169 71z"  fill="#696CFF"/>
</g>
</svg>
